<?xml version="1.0" encoding="UTF-8"?>
<svg xmlns="http://www.w3.org/2000/svg" width="722.70" height="578.16" viewBox="0,0,722.70,578.16">
<desc>R SVG Plot!</desc>
<rect width="100%" height="100%" style="fill:#FFFFFF"/>
<rect x="77.49" y="34.17" width="12.12" height="493.16" style="stroke-width:1;stroke:#FFFFFF;fill:#BEBEBE;stroke-opacity:0.000000;fill-opacity:1.000000" />
<rect x="92.03" y="36.14" width="12.12" height="491.19" style="stroke-width:1;stroke:#FFFFFF;fill:#BEBEBE;stroke-opacity:0.000000;fill-opacity:1.000000" />
<rect x="106.58" y="43.04" width="12.12" height="484.28" style="stroke-width:1;stroke:#FFFFFF;fill:#BEBEBE;stroke-opacity:0.000000;fill-opacity:1.000000" />
<rect x="121.12" y="47.98" width="12.12" height="479.35" style="stroke-width:1;stroke:#FFFFFF;fill:#BEBEBE;stroke-opacity:0.000000;fill-opacity:1.000000" />
<rect x="135.66" y="69.67" width="12.12" height="457.65" style="stroke-width:1;stroke:#FFFFFF;fill:#BEBEBE;stroke-opacity:0.000000;fill-opacity:1.000000" />
<rect x="150.20" y="79.54" width="12.12" height="447.79" style="stroke-width:1;stroke:#FFFFFF;fill:#BEBEBE;stroke-opacity:0.000000;fill-opacity:1.000000" />
<rect x="164.74" y="81.51" width="12.12" height="445.82" style="stroke-width:1;stroke:#FFFFFF;fill:#BEBEBE;stroke-opacity:0.000000;fill-opacity:1.000000" />
<rect x="179.28" y="124.41" width="12.12" height="402.91" style="stroke-width:1;stroke:#FFFFFF;fill:#BEBEBE;stroke-opacity:0.000000;fill-opacity:1.000000" />
<rect x="193.82" y="191.48" width="12.12" height="335.84" style="stroke-width:1;stroke:#FFFFFF;fill:#BEBEBE;stroke-opacity:0.000000;fill-opacity:1.000000" />
<rect x="208.37" y="208.25" width="12.12" height="319.07" style="stroke-width:1;stroke:#FFFFFF;fill:#BEBEBE;stroke-opacity:0.000000;fill-opacity:1.000000" />
<rect x="222.91" y="225.02" width="12.12" height="302.31" style="stroke-width:1;stroke:#FFFFFF;fill:#BEBEBE;stroke-opacity:0.000000;fill-opacity:1.000000" />
<rect x="237.45" y="262.50" width="12.12" height="264.83" style="stroke-width:1;stroke:#FFFFFF;fill:#BEBEBE;stroke-opacity:0.000000;fill-opacity:1.000000" />
<rect x="251.99" y="331.05" width="12.12" height="196.28" style="stroke-width:1;stroke:#FFFFFF;fill:#BEBEBE;stroke-opacity:0.000000;fill-opacity:1.000000" />
<rect x="266.53" y="333.51" width="12.12" height="193.81" style="stroke-width:1;stroke:#FFFFFF;fill:#BEBEBE;stroke-opacity:0.000000;fill-opacity:1.000000" />
<rect x="281.07" y="336.47" width="12.12" height="190.85" style="stroke-width:1;stroke:#FFFFFF;fill:#BEBEBE;stroke-opacity:0.000000;fill-opacity:1.000000" />
<rect x="295.61" y="366.56" width="12.12" height="160.77" style="stroke-width:1;stroke:#FFFFFF;fill:#BEBEBE;stroke-opacity:0.000000;fill-opacity:1.000000" />
<rect x="310.16" y="371.49" width="12.12" height="155.84" style="stroke-width:1;stroke:#FFFFFF;fill:#BEBEBE;stroke-opacity:0.000000;fill-opacity:1.000000" />
<rect x="324.70" y="388.75" width="12.12" height="138.58" style="stroke-width:1;stroke:#FFFFFF;fill:#BEBEBE;stroke-opacity:0.000000;fill-opacity:1.000000" />
<rect x="339.24" y="404.53" width="12.12" height="122.80" style="stroke-width:1;stroke:#FFFFFF;fill:#BEBEBE;stroke-opacity:0.000000;fill-opacity:1.000000" />
<rect x="353.78" y="407.98" width="12.12" height="119.34" style="stroke-width:1;stroke:#FFFFFF;fill:#BEBEBE;stroke-opacity:0.000000;fill-opacity:1.000000" />
<rect x="368.32" y="419.32" width="12.12" height="108.00" style="stroke-width:1;stroke:#FFFFFF;fill:#BEBEBE;stroke-opacity:0.000000;fill-opacity:1.000000" />
<rect x="382.86" y="433.63" width="12.12" height="93.70" style="stroke-width:1;stroke:#FFFFFF;fill:#BEBEBE;stroke-opacity:0.000000;fill-opacity:1.000000" />
<rect x="397.41" y="439.05" width="12.12" height="88.28" style="stroke-width:1;stroke:#FFFFFF;fill:#BEBEBE;stroke-opacity:0.000000;fill-opacity:1.000000" />
<rect x="411.95" y="454.34" width="12.12" height="72.99" style="stroke-width:1;stroke:#FFFFFF;fill:#BEBEBE;stroke-opacity:0.000000;fill-opacity:1.000000" />
<rect x="426.49" y="454.34" width="12.12" height="72.99" style="stroke-width:1;stroke:#FFFFFF;fill:#BEBEBE;stroke-opacity:0.000000;fill-opacity:1.000000" />
<rect x="441.03" y="463.71" width="12.12" height="63.62" style="stroke-width:1;stroke:#FFFFFF;fill:#BEBEBE;stroke-opacity:0.000000;fill-opacity:1.000000" />
<rect x="455.57" y="468.64" width="12.12" height="58.69" style="stroke-width:1;stroke:#FFFFFF;fill:#BEBEBE;stroke-opacity:0.000000;fill-opacity:1.000000" />
<rect x="470.11" y="468.64" width="12.12" height="58.69" style="stroke-width:1;stroke:#FFFFFF;fill:#BEBEBE;stroke-opacity:0.000000;fill-opacity:1.000000" />
<rect x="484.65" y="473.57" width="12.12" height="53.75" style="stroke-width:1;stroke:#FFFFFF;fill:#BEBEBE;stroke-opacity:0.000000;fill-opacity:1.000000" />
<rect x="499.20" y="477.02" width="12.12" height="50.30" style="stroke-width:1;stroke:#FFFFFF;fill:#BEBEBE;stroke-opacity:0.000000;fill-opacity:1.000000" />
<rect x="513.74" y="479.49" width="12.12" height="47.84" style="stroke-width:1;stroke:#FFFFFF;fill:#BEBEBE;stroke-opacity:0.000000;fill-opacity:1.000000" />
<rect x="528.28" y="483.44" width="12.12" height="43.89" style="stroke-width:1;stroke:#FFFFFF;fill:#BEBEBE;stroke-opacity:0.000000;fill-opacity:1.000000" />
<rect x="542.82" y="485.41" width="12.12" height="41.92" style="stroke-width:1;stroke:#FFFFFF;fill:#BEBEBE;stroke-opacity:0.000000;fill-opacity:1.000000" />
<rect x="557.36" y="485.41" width="12.12" height="41.92" style="stroke-width:1;stroke:#FFFFFF;fill:#BEBEBE;stroke-opacity:0.000000;fill-opacity:1.000000" />
<rect x="571.90" y="492.31" width="12.12" height="35.01" style="stroke-width:1;stroke:#FFFFFF;fill:#BEBEBE;stroke-opacity:0.000000;fill-opacity:1.000000" />
<rect x="586.44" y="510.56" width="12.12" height="16.77" style="stroke-width:1;stroke:#FFFFFF;fill:#BEBEBE;stroke-opacity:0.000000;fill-opacity:1.000000" />
<rect x="600.99" y="513.52" width="12.12" height="13.81" style="stroke-width:1;stroke:#FFFFFF;fill:#BEBEBE;stroke-opacity:0.000000;fill-opacity:1.000000" />
<rect x="615.53" y="515.49" width="12.12" height="11.84" style="stroke-width:1;stroke:#FFFFFF;fill:#BEBEBE;stroke-opacity:0.000000;fill-opacity:1.000000" />
<rect x="630.07" y="515.49" width="12.12" height="11.84" style="stroke-width:1;stroke:#FFFFFF;fill:#BEBEBE;stroke-opacity:0.000000;fill-opacity:1.000000" />
<rect x="644.61" y="517.46" width="12.12" height="9.86" style="stroke-width:1;stroke:#FFFFFF;fill:#BEBEBE;stroke-opacity:0.000000;fill-opacity:1.000000" />
<rect x="659.15" y="518.45" width="12.12" height="8.88" style="stroke-width:1;stroke:#FFFFFF;fill:#BEBEBE;stroke-opacity:0.000000;fill-opacity:1.000000" />
<rect x="673.69" y="518.45" width="12.12" height="8.88" style="stroke-width:1;stroke:#FFFFFF;fill:#BEBEBE;stroke-opacity:0.000000;fill-opacity:1.000000" />
<rect x="688.23" y="520.42" width="12.12" height="6.90" style="stroke-width:1;stroke:#FFFFFF;fill:#BEBEBE;stroke-opacity:0.000000;fill-opacity:1.000000" />
<rect x="702.78" y="520.92" width="12.12" height="6.41" style="stroke-width:1;stroke:#FFFFFF;fill:#BEBEBE;stroke-opacity:0.000000;fill-opacity:1.000000" />
<polygon points="717.32 , 527.33 717.32 , 520.92 722.70 , 520.92 722.70 , 527.33 " style="stroke-width:1;stroke:#FFFFFF;fill:#BEBEBE;stroke-opacity:0.000000;fill-opacity:1.000000" />
<text transform="translate(160.04,17.08)"  style="font-size:18" >Nodes estimated as diversification events in more than 95%</text>
<text transform="translate(245.72,32.08)"  style="font-size:18" > of the posterior distribution of trees</text>
<text transform="translate(278.70,568.99)"  style="font-size:15" >Nodes of MCC phylogenetic tree</text>
<text transform="translate(17.50,430.52) rotate(-90)"  style="font-size:15" >Proportion of trees with diversification event</text>
<line x1="50.83" y1="527.33" x2="50.83" y2="34.17" style="stroke-width:1;stroke:#000000;fill:#000000;stroke-opacity:1.000000;fill-opacity:0.000000"/>
<line x1="50.83" y1="527.33" x2="46.67" y2="527.33" style="stroke-width:1;stroke:#000000;fill:#000000;stroke-opacity:1.000000;fill-opacity:0.000000"/>
<line x1="50.83" y1="428.69" x2="46.67" y2="428.69" style="stroke-width:1;stroke:#000000;fill:#000000;stroke-opacity:1.000000;fill-opacity:0.000000"/>
<line x1="50.83" y1="330.06" x2="46.67" y2="330.06" style="stroke-width:1;stroke:#000000;fill:#000000;stroke-opacity:1.000000;fill-opacity:0.000000"/>
<line x1="50.83" y1="231.43" x2="46.67" y2="231.43" style="stroke-width:1;stroke:#000000;fill:#000000;stroke-opacity:1.000000;fill-opacity:0.000000"/>
<line x1="50.83" y1="132.80" x2="46.67" y2="132.80" style="stroke-width:1;stroke:#000000;fill:#000000;stroke-opacity:1.000000;fill-opacity:0.000000"/>
<line x1="50.83" y1="34.17" x2="46.67" y2="34.17" style="stroke-width:1;stroke:#000000;fill:#000000;stroke-opacity:1.000000;fill-opacity:0.000000"/>
<text transform="translate(21.42,533.58)"  style="font-size:15" >0.0</text>
<text transform="translate(21.42,434.94)"  style="font-size:15" >0.2</text>
<text transform="translate(21.42,336.31)"  style="font-size:15" >0.4</text>
<text transform="translate(21.42,237.68)"  style="font-size:15" >0.6</text>
<text transform="translate(21.42,139.05)"  style="font-size:15" >0.8</text>
<text transform="translate(21.42,40.42)"  style="font-size:15" >1.0</text>
<text transform="translate(88.10,517.46) rotate(-90)"  style="font-size:15" >root</text>
<text transform="translate(103.24,517.46) rotate(-90)"  style="font-size:15" >224: Charaxes</text>
<text transform="translate(117.78,517.46) rotate(-90)"  style="font-size:15" >49: Tirumala, Danaus, Amauris, Parantica, Ideopsis, Euploea, Idea</text>
<text transform="translate(132.33,517.46) rotate(-90)"  style="font-size:15" >15: Oleriina, Ithomiina, Napeogenina, Dircennina, Godyrina</text>
<line x1="50.83" y1="58.82" x2="705.20" y2="58.82" style="stroke-width:1;stroke:#000000;fill:#000000;stroke-opacity:1.000000;fill-opacity:0.000000"/>
</svg>
