<?xml version="1.0" encoding="UTF-8" standalone="no"?>
<svg
   xmlns:dc="http://purl.org/dc/elements/1.1/"
   xmlns:cc="http://creativecommons.org/ns#"
   xmlns:rdf="http://www.w3.org/1999/02/22-rdf-syntax-ns#"
   xmlns:svg="http://www.w3.org/2000/svg"
   xmlns="http://www.w3.org/2000/svg"
   xmlns:sodipodi="http://sodipodi.sourceforge.net/DTD/sodipodi-0.dtd"
   xmlns:inkscape="http://www.inkscape.org/namespaces/inkscape"
   width="725.3009"
   height="587.39435"
   viewBox="0 0 725.30089 587.39438"
   id="svg3937"
   version="1.1"
   inkscape:version="0.48.4 r9939"
   sodipodi:docname="fig03.svg">
  <metadata
     id="metadata4055">
    <rdf:RDF>
      <cc:Work
         rdf:about="">
        <dc:format>image/svg+xml</dc:format>
        <dc:type
           rdf:resource="http://purl.org/dc/dcmitype/StillImage" />
      </cc:Work>
    </rdf:RDF>
  </metadata>
  <defs
     id="defs4053" />
  <sodipodi:namedview
     pagecolor="#ffffff"
     bordercolor="#666666"
     borderopacity="1"
     objecttolerance="10"
     gridtolerance="10"
     guidetolerance="10"
     inkscape:pageopacity="0"
     inkscape:pageshadow="2"
     inkscape:window-width="1680"
     inkscape:window-height="994"
     id="namedview4051"
     showgrid="false"
     fit-margin-top="10"
     fit-margin-left="10"
     fit-margin-right="10"
     fit-margin-bottom="10"
     inkscape:zoom="1.15454"
     inkscape:cx="321.83882"
     inkscape:cy="302.04554"
     inkscape:window-x="1377"
     inkscape:window-y="31"
     inkscape:window-maximized="1"
     inkscape:current-layer="svg3937" />
  <desc
     id="desc3939">R SVG Plot!</desc>
  <rect
     x="100.25686"
     y="41.216251"
     width="27.790001"
     height="491.19"
     style="fill:#bebebe;fill-opacity:1;stroke:#ffffff;stroke-width:1;stroke-opacity:0"
     id="rect3943" />
  <rect
     x="133.59685"
     y="58.476254"
     width="27.790001"
     height="473.92999"
     style="fill:#bebebe;fill-opacity:1;stroke:#ffffff;stroke-width:1;stroke-opacity:0"
     id="rect3945" />
  <rect
     x="166.94685"
     y="75.246246"
     width="27.790001"
     height="457.16"
     style="fill:#bebebe;fill-opacity:1;stroke:#ffffff;stroke-width:1;stroke-opacity:0"
     id="rect3947" />
  <rect
     x="200.28685"
     y="83.136246"
     width="27.790001"
     height="449.26999"
     style="fill:#bebebe;fill-opacity:1;stroke:#ffffff;stroke-width:1;stroke-opacity:0"
     id="rect3949" />
  <rect
     x="233.62686"
     y="90.036247"
     width="27.790001"
     height="442.35999"
     style="fill:#bebebe;fill-opacity:1;stroke:#ffffff;stroke-width:1;stroke-opacity:0"
     id="rect3951" />
  <rect
     x="266.97684"
     y="106.31625"
     width="27.790001"
     height="426.09"
     style="fill:#bebebe;fill-opacity:1;stroke:#ffffff;stroke-width:1;stroke-opacity:0"
     id="rect3953" />
  <rect
     x="300.31686"
     y="122.58625"
     width="27.790001"
     height="409.82001"
     style="fill:#bebebe;fill-opacity:1;stroke:#ffffff;stroke-width:1;stroke-opacity:0"
     id="rect3955" />
  <rect
     x="333.66687"
     y="125.54625"
     width="27.790001"
     height="406.85999"
     style="fill:#bebebe;fill-opacity:1;stroke:#ffffff;stroke-width:1;stroke-opacity:0"
     id="rect3957" />
  <rect
     x="367.00687"
     y="145.27625"
     width="27.790001"
     height="387.13"
     style="fill:#bebebe;fill-opacity:1;stroke:#ffffff;stroke-width:1;stroke-opacity:0"
     id="rect3959" />
  <rect
     x="400.34686"
     y="207.40625"
     width="27.790001"
     height="324.98999"
     style="fill:#bebebe;fill-opacity:1;stroke:#ffffff;stroke-width:1;stroke-opacity:0"
     id="rect3961" />
  <rect
     x="433.69687"
     y="227.13625"
     width="27.790001"
     height="305.26999"
     style="fill:#bebebe;fill-opacity:1;stroke:#ffffff;stroke-width:1;stroke-opacity:0"
     id="rect3963" />
  <rect
     x="467.03687"
     y="344.50626"
     width="27.790001"
     height="187.89"
     style="fill:#bebebe;fill-opacity:1;stroke:#ffffff;stroke-width:1;stroke-opacity:0"
     id="rect3965" />
  <rect
     x="500.37686"
     y="345.49628"
     width="27.790001"
     height="186.91"
     style="fill:#bebebe;fill-opacity:1;stroke:#ffffff;stroke-width:1;stroke-opacity:0"
     id="rect3967" />
  <rect
     x="533.72681"
     y="352.89627"
     width="27.790001"
     height="179.50999"
     style="fill:#bebebe;fill-opacity:1;stroke:#ffffff;stroke-width:1;stroke-opacity:0"
     id="rect3969" />
  <rect
     x="567.06683"
     y="375.08627"
     width="27.790001"
     height="157.32001"
     style="fill:#bebebe;fill-opacity:1;stroke:#ffffff;stroke-width:1;stroke-opacity:0"
     id="rect3971" />
  <rect
     x="600.41681"
     y="396.28625"
     width="27.790001"
     height="136.11"
     style="fill:#bebebe;fill-opacity:1;stroke:#ffffff;stroke-width:1;stroke-opacity:0"
     id="rect3973" />
  <rect
     x="633.75684"
     y="436.23627"
     width="27.790001"
     height="96.169998"
     style="fill:#bebebe;fill-opacity:1;stroke:#ffffff;stroke-width:1;stroke-opacity:0"
     id="rect3975" />
  <rect
     x="667.0968"
     y="467.79626"
     width="27.790001"
     height="64.599998"
     style="fill:#bebebe;fill-opacity:1;stroke:#ffffff;stroke-width:1;stroke-opacity:0"
     id="rect3977" />
  <text
     style="font-size:16px"
     id="text3979"
     x="158.38686"
     y="22.15625">Probability of finding nodes as diversification events by MultiMEDUSA</text>
  <text
     style="font-size:16px"
     id="text3981"
     x="208.63686"
     y="35.49625">in a random sample of the posterior distribution of trees</text>
  <text
     style="font-size:16px"
     id="text3983"
     x="283.99686"
     y="574.06622">Nodes of MCC phylogenetic tree</text>
  <text
     transform="matrix(0,-1,1,0,0,0)"
     style="font-size:16px"
     id="text3985"
     x="-437.64627"
     y="22.156227">Probability of node as diversification event</text>
  <line
     x1="71.076859"
     y1="532.40625"
     x2="71.076859"
     y2="39.24625"
     style="fill:#000000;fill-opacity:0;stroke:#000000;stroke-width:1;stroke-opacity:1"
     id="line3987" />
  <line
     x1="71.076859"
     y1="532.40625"
     x2="66.916855"
     y2="532.40625"
     style="fill:#000000;fill-opacity:0;stroke:#000000;stroke-width:1;stroke-opacity:1"
     id="line3989" />
  <line
     x1="71.076859"
     y1="433.76627"
     x2="66.916855"
     y2="433.76627"
     style="fill:#000000;fill-opacity:0;stroke:#000000;stroke-width:1;stroke-opacity:1"
     id="line3991" />
  <line
     x1="71.076859"
     y1="335.13626"
     x2="66.916855"
     y2="335.13626"
     style="fill:#000000;fill-opacity:0;stroke:#000000;stroke-width:1;stroke-opacity:1"
     id="line3993" />
  <line
     x1="71.076859"
     y1="236.50624"
     x2="66.916855"
     y2="236.50624"
     style="fill:#000000;fill-opacity:0;stroke:#000000;stroke-width:1;stroke-opacity:1"
     id="line3995" />
  <line
     x1="71.076859"
     y1="137.87625"
     x2="66.916855"
     y2="137.87625"
     style="fill:#000000;fill-opacity:0;stroke:#000000;stroke-width:1;stroke-opacity:1"
     id="line3997" />
  <line
     x1="71.076859"
     y1="39.24625"
     x2="66.916855"
     y2="39.24625"
     style="fill:#000000;fill-opacity:0;stroke:#000000;stroke-width:1;stroke-opacity:1"
     id="line3999" />
  <text
     style="font-size:16px"
     id="text4001"
     x="40.256855"
     y="539.06622">0.0</text>
  <text
     style="font-size:16px"
     id="text4003"
     x="40.256855"
     y="440.43625">0.2</text>
  <text
     style="font-size:16px"
     id="text4005"
     x="40.256855"
     y="341.80624">0.4</text>
  <text
     style="font-size:16px"
     id="text4007"
     x="40.256855"
     y="243.17625">0.6</text>
  <text
     style="font-size:16px"
     id="text4009"
     x="40.256855"
     y="144.54625">0.8</text>
  <text
     style="font-size:16px"
     id="text4011"
     x="40.256855"
     y="45.90625">1.0</text>
  <text
     transform="matrix(0,-1,1,0,0,0)"
     style="font-size:14px"
     id="text4013"
     x="-522.53625"
     y="115.53685">Charaxes</text>
  <text
     transform="matrix(0,-1,1,0,0,0)"
     style="font-size:14px"
     id="text4015"
     x="-522.53625"
     y="148.88686">Ypthima</text>
  <text
     transform="matrix(0,-1,1,0,0,0)"
     style="font-size:14px"
     id="text4017"
     x="-522.53625"
     y="182.22685">Ithomiini</text>
  <text
     transform="matrix(0,-1,1,0,0,0)"
     style="font-size:14px"
     id="text4019"
     x="-522.53625"
     y="215.56685">Callicore + Diaethria</text>
  <text
     transform="matrix(0,-1,1,0,0,0)"
     style="font-size:14px"
     id="text4021"
     x="-522.53625"
     y="248.91685">Danaini</text>
  <text
     transform="matrix(0,-1,1,0,0,0)"
     style="font-size:14px"
     id="text4023"
     x="-522.53625"
     y="282.25687">Limenitidinae + Heliconiinae</text>
  <text
     transform="matrix(0,-1,1,0,0,0)"
     style="font-size:14px"
     id="text4025"
     x="-522.53625"
     y="315.59686">Caeruleuptychia + Magneuptychia</text>
  <text
     transform="matrix(0,-1,1,0,0,0)"
     style="font-size:14px"
     id="text4027"
     x="-522.53625"
     y="348.94684">Pedaliodes</text>
  <text
     transform="matrix(0,-1,1,0,0,0)"
     style="font-size:14px"
     id="text4029"
     x="-522.53625"
     y="382.28687">Taenaris</text>
  <text
     transform="matrix(0,-1,1,0,0,0)"
     style="font-size:14px"
     id="text4031"
     x="-522.53625"
     y="415.63684">Dryas + Dryadula</text>
  <text
     transform="matrix(0,-1,1,0,0,0)"
     style="font-size:14px"
     id="text4033"
     x="-522.53625"
     y="448.97687">Coenonympha</text>
  <text
     transform="matrix(0,-1,1,0,0,0)"
     style="font-size:14px"
     id="text4035"
     x="-522.53625"
     y="482.31686">Anaeomorpha + Hypna</text>
  <text
     transform="matrix(0,-1,1,0,0,0)"
     style="font-size:14px"
     id="text4037"
     x="-522.53625"
     y="515.66687">Mycalesina</text>
  <text
     transform="matrix(0,-1,1,0,0,0)"
     style="font-size:14px"
     id="text4039"
     x="-522.53625"
     y="549.00684">Pseudergolinae</text>
  <text
     transform="matrix(0,-1,1,0,0,0)"
     style="font-size:14px"
     id="text4041"
     x="-522.53625"
     y="582.34686">Phyciodina</text>
  <text
     transform="matrix(0,-1,1,0,0,0)"
     style="font-size:14px"
     id="text4043"
     x="-522.53625"
     y="615.69684">Satyrina</text>
  <text
     transform="matrix(0,-1,1,0,0,0)"
     style="font-size:14px"
     id="text4045"
     x="-522.53625"
     y="649.03687">Coenonymphina</text>
  <text
     transform="matrix(0,-1,1,0,0,0)"
     style="font-size:14px"
     id="text4047"
     x="-522.53625"
     y="682.38684">Satyrini</text>
  <line
     x1="71.076859"
     y1="88.556252"
     x2="708.77686"
     y2="88.556252"
     style="fill:#000000;fill-opacity:0;stroke:#000000;stroke-width:1;stroke-opacity:1"
     id="line4049" />
</svg>
